# xmcd
#
# Track frame offsets:
#	150
#	12851
#	31021
#	50498
#	62983
#	79195
#	95405
#	107549
#	123463
#	136812
#	154399
#	168693
#	183143
#	201800
#	213880
#	232898
#	249062
#	265785
#	282538
#	294714
#
# Disc length: 4141 seconds
#
# Revision: 1
# Processed by: cddbd v1.5PL3 Copyright (c) Steve Scherf et al.
# Submitted via: audiograbber 1.81.02
#
DISCID=14102b14
DTITLE=Roberta Miranda - As 20 Mais
DYEAR=2004
DGENRE=Brega
TTITLE0=Na Hora "H"
TTITLE1=Pele de Amor
TTITLE2=A Mulher em Mim
TTITLE3=Marcas
TTITLE4=Faz Amor Comigo
TTITLE5=Vá com Deus
TTITLE6=Atração Fatal
TTITLE7=Meu Dengo
TTITLE8=São Tantas Coisas
TTITLE9=Bolero Nunca Mais
TTITLE10=Dia "D"
TTITLE11=Vem Pra Mim
TTITLE12=Chora no Meu Colo
TTITLE13=Reis dos Reis
TTITLE14=Cabecinha no Ombro
TTITLE15=Perder Você
TTITLE16=Tudo em Você me Atrai
TTITLE17=Não tem Jeito Não
TTITLE18=Saudade
TTITLE19=Amanhã
EXTD=
EXTT0=
EXTT1=
EXTT2=
EXTT3=
EXTT4=
EXTT5=
EXTT6=
EXTT7=
EXTT8=
EXTT9=
EXTT10=
EXTT11=
EXTT12=
EXTT13=
EXTT14=
EXTT15=
EXTT16=
EXTT17=
EXTT18=
EXTT19=
PLAYORDER=
